<svg xmlns="http://www.w3.org/2000/svg" class="" viewBox="0 0 866 328" width="866" height="328" style="display: block; user-select: none;"><defs xmlns="http://www.w3.org/1999/xhtml"><style type="text/css">&lt;!--/*--&gt;&lt;![CDATA[/*&gt;&lt;!--*/

  /* from https://fonts.googleapis.com/css2?family=IBM+Plex+Sans&amp;display=swap */
  @font-face {
    font-family: 'IBM Plex Sans';
    font-style: normal;
    font-weight: 400;
    font-display: swap;
    src: url(https://fonts.gstatic.com/s/ibmplexsans/v14/zYXgKVElMYYaJe8bpLHnCwDKhdHeFaxOedc.woff2) format('woff2');
  }
  
  /* from https://fonts.googleapis.com/css2?family=IBM+Plex+Mono&amp;display=swap */
  @font-face {
    font-family: 'IBM Plex Mono';
    font-style: normal;
    font-weight: 400;
    font-display: swap;
    src: url(https://fonts.gstatic.com/s/ibmplexmono/v12/-F63fjptAgt5VM-kVkqdyU8n1i8q131nj-o.woff2) format('woff2');
  }    

/*]]&gt;*/--&gt;</style></defs><rect x="0" y="0" width="866" height="328" style="fill: rgb(255, 255, 255);"/><g><g transform="translate(20, 0)"><g><g><text x="48" y="36" dy=".3em" style="fill: rgb(111, 111, 111); font-family: &quot;IBM Plex Mono&quot;, monospace; font-weight: 400; text-anchor: end; font-size: 14px;"><tspan>q[0]</tspan></text><text x="48" y="76" dy=".3em" style="fill: rgb(111, 111, 111); font-family: &quot;IBM Plex Mono&quot;, monospace; font-weight: 400; text-anchor: end; font-size: 14px;"><tspan>q[1]</tspan></text><text x="48" y="116" dy=".3em" style="fill: rgb(111, 111, 111); font-family: &quot;IBM Plex Mono&quot;, monospace; font-weight: 400; text-anchor: end; font-size: 14px;"><tspan>q[2]</tspan></text></g><g><text x="48" y="156" dy=".3em" style="fill: rgb(111, 111, 111); font-family: &quot;IBM Plex Mono&quot;, monospace; font-weight: 400; text-anchor: end; font-size: 14px;">c01</text><text x="48" y="188" dy=".3em" style="fill: rgb(111, 111, 111); font-family: &quot;IBM Plex Mono&quot;, monospace; font-weight: 400; text-anchor: end; font-size: 14px;">c11</text><text x="48" y="220" dy=".3em" style="fill: rgb(111, 111, 111); font-family: &quot;IBM Plex Mono&quot;, monospace; font-weight: 400; text-anchor: end; font-size: 14px;">c21</text><text x="48" y="252" dy=".3em" style="fill: rgb(111, 111, 111); font-family: &quot;IBM Plex Mono&quot;, monospace; font-weight: 400; text-anchor: end; font-size: 14px;">c31</text><text x="48" y="284" dy=".3em" style="fill: rgb(111, 111, 111); font-family: &quot;IBM Plex Mono&quot;, monospace; font-weight: 400; text-anchor: end; font-size: 14px;">c41</text></g></g></g><g><g><line x1="78" x2="846" y1="36" y2="36" style="fill: none; stroke: rgb(224, 224, 224); stroke-width: 1; stroke-linecap: round;"/><line x1="78" x2="846" y1="76" y2="76" style="fill: none; stroke: rgb(224, 224, 224); stroke-width: 1; stroke-linecap: round;"/><line x1="78" x2="846" y1="116" y2="116" style="fill: none; stroke: rgb(224, 224, 224); stroke-width: 1; stroke-linecap: round;"/></g><line x1="78" x2="846" y1="154" y2="154" style="fill: none; stroke: rgb(224, 224, 224); stroke-width: 1; stroke-linecap: round;"/><line x1="78" x2="846" y1="158" y2="158" style="fill: none; stroke: rgb(224, 224, 224); stroke-width: 1; stroke-linecap: round;"/><line x1="78" x2="846" y1="186" y2="186" style="fill: none; stroke: rgb(224, 224, 224); stroke-width: 1; stroke-linecap: round;"/><line x1="78" x2="846" y1="190" y2="190" style="fill: none; stroke: rgb(224, 224, 224); stroke-width: 1; stroke-linecap: round;"/><line x1="78" x2="846" y1="218" y2="218" style="fill: none; stroke: rgb(224, 224, 224); stroke-width: 1; stroke-linecap: round;"/><line x1="78" x2="846" y1="222" y2="222" style="fill: none; stroke: rgb(224, 224, 224); stroke-width: 1; stroke-linecap: round;"/><line x1="78" x2="846" y1="250" y2="250" style="fill: none; stroke: rgb(224, 224, 224); stroke-width: 1; stroke-linecap: round;"/><line x1="78" x2="846" y1="254" y2="254" style="fill: none; stroke: rgb(224, 224, 224); stroke-width: 1; stroke-linecap: round;"/><line x1="78" x2="846" y1="282" y2="282" style="fill: none; stroke: rgb(224, 224, 224); stroke-width: 1; stroke-linecap: round;"/><line x1="78" x2="846" y1="286" y2="286" style="fill: none; stroke: rgb(224, 224, 224); stroke-width: 1; stroke-linecap: round;"/></g><g transform="translate(86, 20)"><rect x="0" y="0" width="32" height="32" style="fill: rgb(168, 168, 168); stroke-width: 0; stroke: transparent; paint-order: stroke;"/><path fill-rule="evenodd" clip-rule="evenodd" d="M24.1426 15.7872L20.0075 8.625L21.09 8L25.5847 15.785L21.091 23.6234L20.0065 23.0016L24.1426 15.7872ZM7 23.3125V8.3125H8.25V23.3125H7ZM13.9107 11.7054H15.8036C16.2178 11.7054 16.5536 12.0411 16.5536 12.4554V19.1696C16.5536 19.5839 16.2178 19.9196 15.8036 19.9196H13.9107C13.4965 19.9196 13.1607 19.5839 13.1607 19.1696V12.4554C13.1607 12.0411 13.4965 11.7054 13.9107 11.7054ZM11.9107 12.4554C11.9107 11.3508 12.8061 10.4554 13.9107 10.4554H15.8036C16.9081 10.4554 17.8036 11.3508 17.8036 12.4554V19.1696C17.8036 20.2742 16.9081 21.1696 15.8036 21.1696H13.9107C12.8061 21.1696 11.9107 20.2742 11.9107 19.1696V12.4554Z" fill="#161616"/></g><g><rect x="126" y="20" width="32" height="32" style="fill: rgb(250, 77, 86); stroke-width: 0; stroke: transparent; paint-order: stroke;"/><text x="142" y="36" dy=".3em" style="font-family: &quot;IBM Plex Sans&quot;, sans-serif; font-size: 16px; font-style: normal; fill: rgb(22, 22, 22); font-weight: 400; text-anchor: middle;">H</text></g><g transform="translate(166, 0)"><line x1="16" y1="36" x2="16" y2="156" style="stroke-width: 1.5; stroke: rgb(141, 141, 141); stroke-dasharray: 3;"/><g transform="translate(16, 158)"><path d="M0,0 L8,0 L4,8 z" fill="#8d8d8d" transform="translate(-4, -8)"/></g><text x="24" y="144" dy=".3em" style="font-family: &quot;IBM Plex Sans&quot;, sans-serif; font-size: 12px; fill: rgb(22, 22, 22); font-weight: 700; text-anchor: middle;">0</text><g transform="translate(0, 20)"><rect x="0" y="0" width="32" height="32" style="fill: rgb(168, 168, 168); stroke-width: 0; stroke: transparent; paint-order: stroke;"/><path d="M25.2941 11.584H22.7981L25.2301 8.008V7H21.6141V8H23.9101L21.4861 11.576V12.584H25.2941V11.584ZM15.5662 23.4664C15.5662 24.0836 15.0658 24.584 14.4485 24.584C13.8313 24.584 13.3309 24.0836 13.3309 23.4664C13.3309 22.8621 13.8104 22.3699 14.4096 22.3494L17.1775 17.9208C16.3359 17.5757 15.4144 17.3855 14.4485 17.3855C10.4729 17.3855 7.25 20.6084 7.25 24.584H6C6 19.918 9.78254 16.1355 14.4485 16.1355C15.658 16.1355 16.8081 16.3896 17.8483 16.8474L19.5068 14.1939L20.5668 14.8564L18.9545 17.4361C21.3236 18.9327 22.8971 21.5746 22.8971 24.584H21.6471C21.6471 22.0216 20.3082 19.7719 18.2919 18.4962L15.4698 23.0116C15.5317 23.1505 15.5662 23.3044 15.5662 23.4664Z" fill="#161616"/></g></g><g transform="translate(206, 20)"><rect x="0" y="0" width="32" height="32" style="fill: rgb(168, 168, 168); stroke-width: 0; stroke: transparent; paint-order: stroke;"/><path fill-rule="evenodd" clip-rule="evenodd" d="M24.1426 15.7872L20.0075 8.625L21.09 8L25.5847 15.785L21.091 23.6234L20.0065 23.0016L24.1426 15.7872ZM7 23.3125V8.3125H8.25V23.3125H7ZM13.9107 11.7054H15.8036C16.2178 11.7054 16.5536 12.0411 16.5536 12.4554V19.1696C16.5536 19.5839 16.2178 19.9196 15.8036 19.9196H13.9107C13.4965 19.9196 13.1607 19.5839 13.1607 19.1696V12.4554C13.1607 12.0411 13.4965 11.7054 13.9107 11.7054ZM11.9107 12.4554C11.9107 11.3508 12.8061 10.4554 13.9107 10.4554H15.8036C16.9081 10.4554 17.8036 11.3508 17.8036 12.4554V19.1696C17.8036 20.2742 16.9081 21.1696 15.8036 21.1696H13.9107C12.8061 21.1696 11.9107 20.2742 11.9107 19.1696V12.4554Z" fill="#161616"/></g><g><rect x="246" y="20" width="32" height="32" style="fill: rgb(250, 77, 86); stroke-width: 0; stroke: transparent; paint-order: stroke;"/><text x="262" y="36" dy=".3em" style="font-family: &quot;IBM Plex Sans&quot;, sans-serif; font-size: 16px; font-style: normal; fill: rgb(22, 22, 22); font-weight: 400; text-anchor: middle;">H</text></g><g transform="translate(286, 0)"><line x1="16" y1="36" x2="16" y2="188" style="stroke-width: 1.5; stroke: rgb(141, 141, 141); stroke-dasharray: 3;"/><g transform="translate(16, 190)"><path d="M0,0 L8,0 L4,8 z" fill="#8d8d8d" transform="translate(-4, -8)"/></g><text x="24" y="176" dy=".3em" style="font-family: &quot;IBM Plex Sans&quot;, sans-serif; font-size: 12px; fill: rgb(22, 22, 22); font-weight: 700; text-anchor: middle;">0</text><g transform="translate(0, 20)"><rect x="0" y="0" width="32" height="32" style="fill: rgb(168, 168, 168); stroke-width: 0; stroke: transparent; paint-order: stroke;"/><path d="M25.2941 11.584H22.7981L25.2301 8.008V7H21.6141V8H23.9101L21.4861 11.576V12.584H25.2941V11.584ZM15.5662 23.4664C15.5662 24.0836 15.0658 24.584 14.4485 24.584C13.8313 24.584 13.3309 24.0836 13.3309 23.4664C13.3309 22.8621 13.8104 22.3699 14.4096 22.3494L17.1775 17.9208C16.3359 17.5757 15.4144 17.3855 14.4485 17.3855C10.4729 17.3855 7.25 20.6084 7.25 24.584H6C6 19.918 9.78254 16.1355 14.4485 16.1355C15.658 16.1355 16.8081 16.3896 17.8483 16.8474L19.5068 14.1939L20.5668 14.8564L18.9545 17.4361C21.3236 18.9327 22.8971 21.5746 22.8971 24.584H21.6471C21.6471 22.0216 20.3082 19.7719 18.2919 18.4962L15.4698 23.0116C15.5317 23.1505 15.5662 23.3044 15.5662 23.4664Z" fill="#161616"/></g></g><g transform="translate(342, 36)"><line x1="0" y1="-16" x2="0" y2="-2" style="stroke-width: 1; stroke: rgb(22, 22, 22);"/><line x1="0" y1="2" x2="0" y2="16" style="stroke-width: 1; stroke: rgb(22, 22, 22);"/></g><g transform="translate(366, 0)"><line x1="16" y1="20" x2="16" y2="156" style="stroke-width: 1.5; stroke: rgb(141, 141, 141);"/><circle cx="16" cy="156" r="3" style="stroke: rgb(141, 141, 141); fill: rgb(141, 141, 141);"/><text x="16" y="168" dy=".3em" style="font-family: &quot;IBM Plex Sans&quot;, sans-serif; font-size: 12px; fill: rgb(22, 22, 22); font-weight: 700; text-anchor: middle;">== 1</text></g><g transform="translate(382, 36)"><g><circle cx="0" cy="0" r="16" style="fill: rgb(0, 45, 156); stroke-width: 0; stroke: transparent; paint-order: stroke;"/><line x1="0" y1="-8" x2="0" y2="8" style="stroke-width: 1.25; stroke: rgb(255, 255, 255);"/><line x1="8" y1="0" x2="-8" y2="0" style="stroke-width: 1.25; stroke: rgb(255, 255, 255);"/></g></g><g transform="translate(422, 36)"><line x1="0" y1="-16" x2="0" y2="-2" style="stroke-width: 1; stroke: rgb(22, 22, 22);"/><line x1="0" y1="2" x2="0" y2="16" style="stroke-width: 1; stroke: rgb(22, 22, 22);"/></g><g transform="translate(446, 0)"><line x1="16" y1="20" x2="16" y2="188" style="stroke-width: 1.5; stroke: rgb(141, 141, 141);"/><circle cx="16" cy="188" r="3" style="stroke: rgb(141, 141, 141); fill: rgb(141, 141, 141);"/><text x="16" y="200" dy=".3em" style="font-family: &quot;IBM Plex Sans&quot;, sans-serif; font-size: 12px; fill: rgb(22, 22, 22); font-weight: 700; text-anchor: middle;">== 1</text></g><g><rect x="446" y="20" width="32" height="32" style="fill: rgb(250, 77, 86); stroke-width: 0; stroke: transparent; paint-order: stroke;"/><text x="462" y="36" dy=".3em" style="font-family: &quot;IBM Plex Sans&quot;, sans-serif; font-size: 16px; font-style: normal; fill: rgb(22, 22, 22); font-weight: 400; text-anchor: middle;">H</text></g><line x1="502" y1="36" x2="502" y2="76" style="stroke-width: 1; stroke: rgb(0, 45, 156);"/><g transform="translate(502, 36)"><line x1="-8" y1="-8" x2="8" y2="8" style="stroke-width: 1; stroke: rgb(0, 45, 156);"/><line x1="8" y1="-8" x2="-8" y2="8" style="stroke-width: 1; stroke: rgb(0, 45, 156);"/></g><g transform="translate(502, 76)"><line x1="-8" y1="-8" x2="8" y2="8" style="stroke-width: 1; stroke: rgb(0, 45, 156);"/><line x1="8" y1="-8" x2="-8" y2="8" style="stroke-width: 1; stroke: rgb(0, 45, 156);"/></g><g><rect x="526" y="60" width="32" height="32" style="fill: rgb(250, 77, 86); stroke-width: 0; stroke: transparent; paint-order: stroke;"/><text x="542" y="76" dy=".3em" style="font-family: &quot;IBM Plex Sans&quot;, sans-serif; font-size: 16px; font-style: normal; fill: rgb(22, 22, 22); font-weight: 400; text-anchor: middle;">H</text></g><g transform="translate(526, 100)"><rect x="0" y="0" width="32" height="32" style="fill: rgb(168, 168, 168); stroke-width: 0; stroke: transparent; paint-order: stroke;"/><path fill-rule="evenodd" clip-rule="evenodd" d="M24.1426 15.7872L20.0075 8.625L21.09 8L25.5847 15.785L21.091 23.6234L20.0065 23.0016L24.1426 15.7872ZM7 23.3125V8.3125H8.25V23.3125H7ZM13.9107 11.7054H15.8036C16.2178 11.7054 16.5536 12.0411 16.5536 12.4554V19.1696C16.5536 19.5839 16.2178 19.9196 15.8036 19.9196H13.9107C13.4965 19.9196 13.1607 19.5839 13.1607 19.1696V12.4554C13.1607 12.0411 13.4965 11.7054 13.9107 11.7054ZM11.9107 12.4554C11.9107 11.3508 12.8061 10.4554 13.9107 10.4554H15.8036C16.9081 10.4554 17.8036 11.3508 17.8036 12.4554V19.1696C17.8036 20.2742 16.9081 21.1696 15.8036 21.1696H13.9107C12.8061 21.1696 11.9107 20.2742 11.9107 19.1696V12.4554Z" fill="#161616"/></g><g transform="translate(566, 0)"><line x1="16" y1="76" x2="16" y2="284" style="stroke-width: 1.5; stroke: rgb(141, 141, 141); stroke-dasharray: 3;"/><g transform="translate(16, 286)"><path d="M0,0 L8,0 L4,8 z" fill="#8d8d8d" transform="translate(-4, -8)"/></g><text x="24" y="272" dy=".3em" style="font-family: &quot;IBM Plex Sans&quot;, sans-serif; font-size: 12px; fill: rgb(22, 22, 22); font-weight: 700; text-anchor: middle;">0</text><g transform="translate(0, 60)"><rect x="0" y="0" width="32" height="32" style="fill: rgb(168, 168, 168); stroke-width: 0; stroke: transparent; paint-order: stroke;"/><path d="M25.2941 11.584H22.7981L25.2301 8.008V7H21.6141V8H23.9101L21.4861 11.576V12.584H25.2941V11.584ZM15.5662 23.4664C15.5662 24.0836 15.0658 24.584 14.4485 24.584C13.8313 24.584 13.3309 24.0836 13.3309 23.4664C13.3309 22.8621 13.8104 22.3699 14.4096 22.3494L17.1775 17.9208C16.3359 17.5757 15.4144 17.3855 14.4485 17.3855C10.4729 17.3855 7.25 20.6084 7.25 24.584H6C6 19.918 9.78254 16.1355 14.4485 16.1355C15.658 16.1355 16.8081 16.3896 17.8483 16.8474L19.5068 14.1939L20.5668 14.8564L18.9545 17.4361C21.3236 18.9327 22.8971 21.5746 22.8971 24.584H21.6471C21.6471 22.0216 20.3082 19.7719 18.2919 18.4962L15.4698 23.0116C15.5317 23.1505 15.5662 23.3044 15.5662 23.4664Z" fill="#161616"/></g></g><g transform="translate(606, 60)"><rect x="0" y="0" width="32" height="32" style="fill: rgb(168, 168, 168); stroke-width: 0; stroke: transparent; paint-order: stroke;"/><path fill-rule="evenodd" clip-rule="evenodd" d="M24.1426 15.7872L20.0075 8.625L21.09 8L25.5847 15.785L21.091 23.6234L20.0065 23.0016L24.1426 15.7872ZM7 23.3125V8.3125H8.25V23.3125H7ZM13.9107 11.7054H15.8036C16.2178 11.7054 16.5536 12.0411 16.5536 12.4554V19.1696C16.5536 19.5839 16.2178 19.9196 15.8036 19.9196H13.9107C13.4965 19.9196 13.1607 19.5839 13.1607 19.1696V12.4554C13.1607 12.0411 13.4965 11.7054 13.9107 11.7054ZM11.9107 12.4554C11.9107 11.3508 12.8061 10.4554 13.9107 10.4554H15.8036C16.9081 10.4554 17.8036 11.3508 17.8036 12.4554V19.1696C17.8036 20.2742 16.9081 21.1696 15.8036 21.1696H13.9107C12.8061 21.1696 11.9107 20.2742 11.9107 19.1696V12.4554Z" fill="#161616"/></g><g><rect x="606" y="100" width="32" height="32" style="fill: rgb(250, 77, 86); stroke-width: 0; stroke: transparent; paint-order: stroke;"/><text x="622" y="116" dy=".3em" style="font-family: &quot;IBM Plex Sans&quot;, sans-serif; font-size: 16px; font-style: normal; fill: rgb(22, 22, 22); font-weight: 400; text-anchor: middle;">H</text></g><g transform="translate(662, 76)"><g><circle cx="0" cy="0" r="16" style="fill: rgb(0, 45, 156); stroke-width: 0; stroke: transparent; paint-order: stroke;"/><line x1="0" y1="-8" x2="0" y2="8" style="stroke-width: 1.25; stroke: rgb(255, 255, 255);"/><line x1="8" y1="0" x2="-8" y2="0" style="stroke-width: 1.25; stroke: rgb(255, 255, 255);"/></g></g><g transform="translate(646, 0)"><line x1="16" y1="116" x2="16" y2="220" style="stroke-width: 1.5; stroke: rgb(141, 141, 141); stroke-dasharray: 3;"/><g transform="translate(16, 222)"><path d="M0,0 L8,0 L4,8 z" fill="#8d8d8d" transform="translate(-4, -8)"/></g><text x="24" y="208" dy=".3em" style="font-family: &quot;IBM Plex Sans&quot;, sans-serif; font-size: 12px; fill: rgb(22, 22, 22); font-weight: 700; text-anchor: middle;">0</text><g transform="translate(0, 100)"><rect x="0" y="0" width="32" height="32" style="fill: rgb(168, 168, 168); stroke-width: 0; stroke: transparent; paint-order: stroke;"/><path d="M25.2941 11.584H22.7981L25.2301 8.008V7H21.6141V8H23.9101L21.4861 11.576V12.584H25.2941V11.584ZM15.5662 23.4664C15.5662 24.0836 15.0658 24.584 14.4485 24.584C13.8313 24.584 13.3309 24.0836 13.3309 23.4664C13.3309 22.8621 13.8104 22.3699 14.4096 22.3494L17.1775 17.9208C16.3359 17.5757 15.4144 17.3855 14.4485 17.3855C10.4729 17.3855 7.25 20.6084 7.25 24.584H6C6 19.918 9.78254 16.1355 14.4485 16.1355C15.658 16.1355 16.8081 16.3896 17.8483 16.8474L19.5068 14.1939L20.5668 14.8564L18.9545 17.4361C21.3236 18.9327 22.8971 21.5746 22.8971 24.584H21.6471C21.6471 22.0216 20.3082 19.7719 18.2919 18.4962L15.4698 23.0116C15.5317 23.1505 15.5662 23.3044 15.5662 23.4664Z" fill="#161616"/></g></g><g><rect x="686" y="60" width="32" height="32" style="fill: rgb(250, 77, 86); stroke-width: 0; stroke: transparent; paint-order: stroke;"/><text x="702" y="76" dy=".3em" style="font-family: &quot;IBM Plex Sans&quot;, sans-serif; font-size: 16px; font-style: normal; fill: rgb(22, 22, 22); font-weight: 400; text-anchor: middle;">H</text></g><line x1="742" y1="76" x2="742" y2="116" style="stroke-width: 1; stroke: rgb(0, 45, 156);"/><g transform="translate(742, 76)"><line x1="-8" y1="-8" x2="8" y2="8" style="stroke-width: 1; stroke: rgb(0, 45, 156);"/><line x1="8" y1="-8" x2="-8" y2="8" style="stroke-width: 1; stroke: rgb(0, 45, 156);"/></g><g transform="translate(742, 116)"><line x1="-8" y1="-8" x2="8" y2="8" style="stroke-width: 1; stroke: rgb(0, 45, 156);"/><line x1="8" y1="-8" x2="-8" y2="8" style="stroke-width: 1; stroke: rgb(0, 45, 156);"/></g><g transform="translate(766, 0)"><line x1="16" y1="100" x2="16" y2="220" style="stroke-width: 1.5; stroke: rgb(141, 141, 141);"/><circle cx="16" cy="220" r="3" style="stroke: rgb(141, 141, 141); fill: rgb(141, 141, 141);"/><text x="16" y="232" dy=".3em" style="font-family: &quot;IBM Plex Sans&quot;, sans-serif; font-size: 12px; fill: rgb(22, 22, 22); font-weight: 700; text-anchor: middle;">== 1</text></g><g><rect x="766" y="100" width="32" height="32" style="fill: rgb(250, 77, 86); stroke-width: 0; stroke: transparent; paint-order: stroke;"/><text x="782" y="116" dy=".3em" style="font-family: &quot;IBM Plex Sans&quot;, sans-serif; font-size: 16px; font-style: normal; fill: rgb(22, 22, 22); font-weight: 400; text-anchor: middle;">H</text></g><g transform="translate(806, 0)"><line x1="16" y1="116" x2="16" y2="252" style="stroke-width: 1.5; stroke: rgb(141, 141, 141); stroke-dasharray: 3;"/><g transform="translate(16, 254)"><path d="M0,0 L8,0 L4,8 z" fill="#8d8d8d" transform="translate(-4, -8)"/></g><text x="24" y="240" dy=".3em" style="font-family: &quot;IBM Plex Sans&quot;, sans-serif; font-size: 12px; fill: rgb(22, 22, 22); font-weight: 700; text-anchor: middle;">0</text><g transform="translate(0, 100)"><rect x="0" y="0" width="32" height="32" style="fill: rgb(168, 168, 168); stroke-width: 0; stroke: transparent; paint-order: stroke;"/><path d="M25.2941 11.584H22.7981L25.2301 8.008V7H21.6141V8H23.9101L21.4861 11.576V12.584H25.2941V11.584ZM15.5662 23.4664C15.5662 24.0836 15.0658 24.584 14.4485 24.584C13.8313 24.584 13.3309 24.0836 13.3309 23.4664C13.3309 22.8621 13.8104 22.3699 14.4096 22.3494L17.1775 17.9208C16.3359 17.5757 15.4144 17.3855 14.4485 17.3855C10.4729 17.3855 7.25 20.6084 7.25 24.584H6C6 19.918 9.78254 16.1355 14.4485 16.1355C15.658 16.1355 16.8081 16.3896 17.8483 16.8474L19.5068 14.1939L20.5668 14.8564L18.9545 17.4361C21.3236 18.9327 22.8971 21.5746 22.8971 24.584H21.6471C21.6471 22.0216 20.3082 19.7719 18.2919 18.4962L15.4698 23.0116C15.5317 23.1505 15.5662 23.3044 15.5662 23.4664Z" fill="#161616"/></g></g></g></svg>